<mxfile host="app.diagrams.net" modified="2023-07-19T14:06:21.983Z" agent="Mozilla/5.0 (Macintosh; Intel Mac OS X 10_15_7) AppleWebKit/537.36 (KHTML, like Gecko) Chrome/114.0.0.0 Safari/537.36" version="21.6.1" etag="PABF8aFOAIxdQnNTPY4K" type="github">
  <diagram name="Страница 1" id="-2q_SwIuEBApDm76zNDx">
    <mxGraphModel>
      <root>
        <mxCell id="0" />
        <mxCell id="1" parent="0" />
      </root>
    </mxGraphModel>
  </diagram>
</mxfile>
